<svg width="18" height="18" viewBox="0 0 18 18" fill="none" xmlns="http://www.w3.org/2000/svg">
<path d="M5.95983 4.63207C6.29013 4.67145 6.6069 4.48856 6.73795 4.18282L7.69326 1.9541H10.308L11.2633 4.18282C11.3943 4.48856 11.7111 4.67145 12.0414 4.63207L14.4474 4.34524L15.7566 6.60937L14.304 8.55111C14.1048 8.81747 14.1048 9.18325 14.304 9.44961L15.7566 11.3913L14.4474 13.6555L12.0414 13.3686C11.7111 13.3293 11.3943 13.5122 11.2633 13.8179L10.308 16.0466H7.69326L6.73795 13.8179C6.6069 13.5122 6.29013 13.3293 5.95983 13.3686L3.55384 13.6555L2.24465 11.3913L3.69717 9.44961C3.89642 9.18325 3.89642 8.81747 3.69717 8.55111L2.24465 6.60937L3.55384 4.34524L5.95983 4.63207Z" stroke="black" stroke-width="1.5" stroke-linejoin="round"/>
<circle cx="9" cy="9" r="2.25" stroke="black" stroke-width="1.5"/>
</svg>
